<?xml version="1.0" encoding="UTF-8" standalone="no"?>
<svg
   xmlns:dc="http://purl.org/dc/elements/1.1/"
   xmlns:cc="http://creativecommons.org/ns#"
   xmlns:rdf="http://www.w3.org/1999/02/22-rdf-syntax-ns#"
   xmlns:svg="http://www.w3.org/2000/svg"
   xmlns="http://www.w3.org/2000/svg"
   xmlns:sodipodi="http://sodipodi.sourceforge.net/DTD/sodipodi-0.dtd"
   xmlns:inkscape="http://www.inkscape.org/namespaces/inkscape"
   width="27.102938mm"
   height="31.29624mm"
   viewBox="0 0 27.102938 31.29624"
   version="1.1"
   id="svg936"
   inkscape:version="1.0.2 (e86c870879, 2021-01-15, custom)"
   sodipodi:docname="geisha_wo_fonts.svg">
  <defs
     id="defs930">
    <clipPath
       clipPathUnits="userSpaceOnUse"
       id="clipPath76">
      <path
         d="M 0,0 H 1024 V 768 H 0 Z"
         id="path74" />
    </clipPath>
  </defs>
  <sodipodi:namedview
     id="base"
     pagecolor="#ffffff"
     bordercolor="#666666"
     borderopacity="1.0"
     inkscape:pageopacity="0.0"
     inkscape:pageshadow="2"
     inkscape:zoom="1.7670732"
     inkscape:cx="196.19654"
     inkscape:cy="12.382391"
     inkscape:document-units="mm"
     inkscape:current-layer="layer1"
     inkscape:document-rotation="0"
     showgrid="false"
     inkscape:window-width="2556"
     inkscape:window-height="1401"
     inkscape:window-x="0"
     inkscape:window-y="18"
     inkscape:window-maximized="1"
     fit-margin-top="0"
     fit-margin-left="0"
     fit-margin-right="0"
     fit-margin-bottom="0" />
  <metadata
     id="metadata933">
    <rdf:RDF>
      <cc:Work
         rdf:about="">
        <dc:format>image/svg+xml</dc:format>
        <dc:type
           rdf:resource="http://purl.org/dc/dcmitype/StillImage" />
        <dc:title></dc:title>
      </cc:Work>
    </rdf:RDF>
  </metadata>
  <g
     inkscape:label="Layer 1"
     inkscape:groupmode="layer"
     id="layer1"
     transform="translate(-57.137913,-103.46383)">
    <path
       style="isolation:isolate;fill:#204a87;fill-opacity:1;stroke-width:0.0368832;stroke:#204a87"
       inkscape:connector-curvature="0"
       id="path2066-9-9-0-7-6-1-3-5-6-5-3-0-5"
       d="m 83.160134,110.66391 -10.246307,-5.91579 -2.224458,-1.28429 -2.224458,1.28429 -10.247048,5.91615 -1.07995,0.62371 v 15.64794 l 1.07995,0.6237 10.374657,5.98956 2.096849,1.21089 2.096849,-1.21089 10.373916,-5.98919 1.080717,-0.62407 v -15.64794 z"
       class="cls-31"
       sodipodi:nodetypes="ccccccccccccccc" />
    <path
       style="isolation:isolate;fill:#204a87;fill-opacity:1;stroke-width:0.0368832"
       inkscape:connector-curvature="0"
       id="path2066-9-9-0-7-6-1-3-8-36-2-5-7-8-6"
       d="m 83.160134,110.66391 -10.246307,-5.91579 -2.224458,-1.28429 -2.224458,1.28429 -10.247048,5.91615 -1.07995,0.62371 v 15.64794 l 1.07995,0.6237 10.374657,5.98956 2.096875,1.21089 2.096797,-1.21089 10.373942,-5.98919 1.080717,-0.62407 v -15.64794 z m 0,15.68519 -12.471136,7.20008 -12.471135,-7.20008 v -14.40201 l 12.471135,-7.19897 v 0 l 12.471136,7.19897 z"
       class="cls-31" />
    <path
       style="isolation:isolate;fill:#e6b35a;stroke-width:0.0368832"
       inkscape:connector-curvature="0"
       id="path1798-0-8-6-3-9-9-3-3-9-8-6-4-6-8"
       d="m 70.670927,126.80756 c 0.01058,-0.0107 0.02249,-0.0218 0.03471,-0.0328 h -0.01005 c -0.0069,0.0111 -0.01561,0.0221 -0.02514,0.0328 z"
       class="cls-10" />
    <g
       aria-label="geisha"
       id="text903-6-6-6-3-2-3-8-6-0-9-2-5-8-5"
       style="font-style:normal;font-variant:normal;font-weight:normal;font-stretch:normal;font-size:3.84093px;line-height:125%;font-family:'Ubuntu Mono Ligaturized';-inkscape-font-specification:'Ubuntu Mono Ligaturized';font-variant-ligatures:normal;font-variant-caps:normal;font-variant-numeric:normal;font-feature-settings:normal;text-align:start;letter-spacing:0px;word-spacing:0px;writing-mode:lr-tb;text-anchor:start;fill:#f2f2f2;fill-opacity:1;stroke:none;stroke-width:0.0368832px;stroke-linecap:butt;stroke-linejoin:miter;stroke-opacity:1">
      <path
         d="m 66.310743,126.33128 q -0.05377,0.0307 -0.16516,0.0653 -0.111387,0.0346 -0.257343,0.0346 -0.157478,0 -0.295751,-0.0499 -0.134433,-0.0538 -0.238138,-0.15748 -0.09986,-0.10754 -0.161319,-0.26886 -0.05761,-0.16516 -0.05761,-0.38794 0,-0.19589 0.05377,-0.3572 0.05761,-0.16516 0.161319,-0.28423 0.107546,-0.11907 0.261184,-0.18437 0.153637,-0.0691 0.349524,-0.0691 0.230456,0 0.391775,0.0346 0.16516,0.0307 0.276547,0.0615 v 1.59014 q 0,0.41482 -0.211251,0.59919 -0.20741,0.18436 -0.629913,0.18436 -0.172842,0 -0.314956,-0.0269 -0.138273,-0.0269 -0.245819,-0.0653 l 0.05761,-0.28039 q 0.09987,0.0423 0.226615,0.0691 0.130592,0.0269 0.284229,0.0269 0.276547,0 0.395616,-0.11139 0.119069,-0.11139 0.119069,-0.36105 z m 0,-1.33665 q -0.04609,-0.0154 -0.126751,-0.0269 -0.08066,-0.0154 -0.218933,-0.0154 -0.245819,0 -0.376411,0.169 -0.126751,0.16901 -0.126751,0.44939 0,0.15364 0.03457,0.26503 0.03841,0.10754 0.09986,0.18052 0.0653,0.0691 0.145955,0.10371 0.08066,0.0307 0.172842,0.0307 0.119069,0 0.222774,-0.0346 0.107546,-0.0346 0.172842,-0.0807 z"
         style="font-style:normal;font-variant:normal;font-weight:normal;font-stretch:normal;font-size:3.84093px;font-family:'Ubuntu Mono Ligaturized';-inkscape-font-specification:'Ubuntu Mono Ligaturized';fill:#f2f2f2;fill-opacity:1;stroke:none;stroke-width:0.0368832px"
         id="path885" />
      <path
         d="m 67.89704,124.672 q 0.361047,0 0.556934,0.22661 0.195888,0.22277 0.195888,0.67984 v 0.11139 h -1.275189 q 0.0192,0.27655 0.180524,0.4225 0.16516,0.14212 0.460911,0.14212 0.169001,0 0.28807,-0.0269 0.119069,-0.0269 0.180524,-0.0576 l 0.04225,0.26886 q -0.05761,0.0307 -0.20741,0.0653 -0.149796,0.0346 -0.338002,0.0346 -0.230456,0 -0.407139,-0.0691 -0.172841,-0.073 -0.288069,-0.19589 -0.115228,-0.12291 -0.172842,-0.29191 -0.05761,-0.17284 -0.05761,-0.37257 0,-0.23814 0.07298,-0.41482 0.07298,-0.17668 0.192046,-0.29191 0.119069,-0.11523 0.268865,-0.17284 0.149796,-0.0576 0.307275,-0.0576 z m 0.430184,0.7605 q 0,-0.22662 -0.119069,-0.35721 -0.119069,-0.13443 -0.314956,-0.13443 -0.111387,0 -0.20357,0.0422 -0.08834,0.0423 -0.153637,0.11139 -0.0653,0.0691 -0.103705,0.15748 -0.03841,0.0883 -0.04993,0.18052 z"
         style="font-style:normal;font-variant:normal;font-weight:normal;font-stretch:normal;font-size:3.84093px;font-family:'Ubuntu Mono Ligaturized';-inkscape-font-specification:'Ubuntu Mono Ligaturized';fill:#f2f2f2;fill-opacity:1;stroke:none;stroke-width:0.0368832px"
         id="path887" />
      <path
         d="m 69.625451,124.4377 q -0.09986,0 -0.172842,-0.0691 -0.07298,-0.0691 -0.07298,-0.1882 0,-0.11907 0.07298,-0.18821 0.07298,-0.0691 0.172842,-0.0691 0.103705,0 0.172842,0.0691 0.07298,0.0691 0.07298,0.18821 0,0.11907 -0.07298,0.1882 -0.06914,0.0691 -0.172842,0.0691 z m -0.08066,0.54157 h -0.514684 v -0.26502 h 0.829641 v 1.09466 q 0,0.26502 0.07298,0.35721 0.07298,0.0883 0.218933,0.0883 0.111387,0 0.20357,-0.0269 0.09602,-0.0269 0.149796,-0.0576 l 0.04609,0.26886 q -0.02305,0.0115 -0.0653,0.0307 -0.04225,0.0154 -0.09986,0.0307 -0.05377,0.0154 -0.12291,0.0269 -0.0653,0.0115 -0.138273,0.0115 -0.169001,0 -0.280388,-0.0461 -0.111387,-0.0461 -0.180524,-0.13828 -0.0653,-0.0922 -0.09218,-0.22661 -0.02689,-0.13828 -0.02689,-0.3188 z"
         style="font-style:normal;font-variant:normal;font-weight:normal;font-stretch:normal;font-size:3.84093px;font-family:'Ubuntu Mono Ligaturized';-inkscape-font-specification:'Ubuntu Mono Ligaturized';fill:#f2f2f2;fill-opacity:1;stroke:none;stroke-width:0.0368832px"
         id="path889" />
      <path
         d="m 72.09132,126.05089 q 0,-0.096 -0.08066,-0.15748 -0.07682,-0.0615 -0.195887,-0.10754 -0.115228,-0.0461 -0.253502,-0.0884 -0.138273,-0.0461 -0.257342,-0.11138 -0.115228,-0.0653 -0.195888,-0.16132 -0.07682,-0.096 -0.07682,-0.24966 0,-0.21509 0.172842,-0.35721 0.176682,-0.14595 0.549253,-0.14595 0.145955,0 0.299592,0.023 0.157478,0.0192 0.268865,0.0538 l -0.05761,0.28423 q -0.03073,-0.0154 -0.0845,-0.0307 -0.05377,-0.0192 -0.12291,-0.0307 -0.06914,-0.0154 -0.149796,-0.0231 -0.07682,-0.008 -0.149796,-0.008 -0.414821,0 -0.414821,0.22662 0,0.0807 0.07682,0.13827 0.08066,0.0538 0.199728,0.0999 0.119069,0.0461 0.257342,0.096 0.138274,0.0461 0.257343,0.11522 0.119069,0.0691 0.195887,0.16901 0.08066,0.096 0.08066,0.24581 0,0.24198 -0.188206,0.37642 -0.188205,0.13059 -0.595344,0.13059 -0.184365,0 -0.338002,-0.0307 -0.153637,-0.0307 -0.291911,-0.0922 l 0.06145,-0.28807 q 0.134433,0.0615 0.280388,0.1037 0.149796,0.0384 0.318797,0.0384 0.434025,0 0.434025,-0.21893 z"
         style="font-style:normal;font-variant:normal;font-weight:normal;font-stretch:normal;font-size:3.84093px;font-family:'Ubuntu Mono Ligaturized';-inkscape-font-specification:'Ubuntu Mono Ligaturized';fill:#f2f2f2;fill-opacity:1;stroke:none;stroke-width:0.0368832px"
         id="path891" />
      <path
         d="m 72.936318,126.49644 v -2.60799 l 0.318797,-0.0538 v 0.90646 q 0.07682,-0.0307 0.172842,-0.0461 0.09602,-0.0192 0.188206,-0.0192 0.203569,0 0.338001,0.0615 0.138274,0.0576 0.218933,0.16516 0.08066,0.10755 0.115228,0.25734 0.03457,0.1498 0.03457,0.33032 v 1.00633 h -0.314957 v -0.93719 q 0,-0.33032 -0.09218,-0.46475 -0.09218,-0.13828 -0.33032,-0.13828 -0.09986,0 -0.195887,0.023 -0.09218,0.0192 -0.134433,0.0384 v 1.47876 z"
         style="font-style:normal;font-variant:normal;font-weight:normal;font-stretch:normal;font-size:3.84093px;font-family:'Ubuntu Mono Ligaturized';-inkscape-font-specification:'Ubuntu Mono Ligaturized';fill:#f2f2f2;fill-opacity:1;stroke:none;stroke-width:0.0368832px"
         id="path893" />
      <path
         d="m 75.563506,126.26982 q 0.119069,0 0.211252,-0.008 0.09602,-0.008 0.157478,-0.0192 v -0.53005 q -0.06146,-0.0192 -0.149797,-0.0307 -0.0845,-0.0115 -0.180523,-0.0115 -0.08834,0 -0.172842,0.0154 -0.0845,0.0115 -0.149796,0.0461 -0.0653,0.0346 -0.107546,0.0922 -0.04225,0.0538 -0.04225,0.13828 0,0.17284 0.115228,0.24198 0.119069,0.0653 0.318797,0.0653 z m -0.03073,-1.59782 q 0.199728,0 0.334161,0.0499 0.138273,0.0499 0.222774,0.13827 0.0845,0.0883 0.119069,0.21509 0.03457,0.12675 0.03457,0.27655 v 1.11387 q -0.111387,0.0192 -0.295752,0.0461 -0.180523,0.0269 -0.37257,0.0269 -0.145955,0 -0.284229,-0.0269 -0.138273,-0.023 -0.245819,-0.0845 -0.107546,-0.0653 -0.172842,-0.17668 -0.0653,-0.11139 -0.0653,-0.28423 0,-0.15364 0.0653,-0.25734 0.06914,-0.10755 0.172842,-0.17285 0.107546,-0.0653 0.241978,-0.0922 0.138274,-0.0307 0.276547,-0.0307 0.188206,0 0.36873,0.0423 v -0.0884 q 0,-0.0807 -0.0192,-0.15363 -0.01536,-0.0768 -0.0653,-0.13828 -0.04609,-0.0614 -0.130591,-0.096 -0.08066,-0.0384 -0.211252,-0.0384 -0.16516,0 -0.288069,0.023 -0.12291,0.023 -0.188206,0.0461 l -0.03841,-0.26119 q 0.0653,-0.0307 0.215092,-0.0538 0.153637,-0.023 0.326479,-0.023 z"
         style="font-style:normal;font-variant:normal;font-weight:normal;font-stretch:normal;font-size:3.84093px;font-family:'Ubuntu Mono Ligaturized';-inkscape-font-specification:'Ubuntu Mono Ligaturized';fill:#f2f2f2;fill-opacity:1;stroke:none;stroke-width:0.0368832px"
         id="path895" />
    </g>
    <g
       id="g2189"
       transform="translate(1.0661037,0.84740073)">
      <path
         style="fill:#ffffff;stroke:none;stroke-width:0.0503923px;stroke-linecap:butt;stroke-linejoin:miter;stroke-opacity:1"
         d="m 68.182133,113.92392 c 0,0 -0.100096,0.61716 -0.224108,0.91966 -0.124012,0.3025 -0.342185,0.67758 -0.703839,1.17593 -0.361652,0.49833 -0.511753,0.57676 -0.596107,0.94701 -0.08436,0.37026 -0.108616,0.56077 -0.02751,0.89257 0.0811,0.33181 0.378708,0.93283 0.780641,1.19342 0.401933,0.26058 0.85987,0.47614 1.195049,0.64607 0.335182,0.16992 0.364458,0.16174 0.418983,0.26846 0.05452,0.10672 0.127497,0.17701 0.08611,0.35292 -0.04139,0.17591 -0.04607,0.23799 -0.20341,0.36899 -0.157339,0.131 -0.209921,0.16282 -0.371579,0.20013 -0.16166,0.0373 -0.174265,0.0466 -0.425901,0.0774 -0.251639,0.0307 -0.28325,0.023 -0.355482,0.0587 -0.07223,0.0357 -0.115896,0.12873 -0.0999,0.19121 0.016,0.0625 0.02406,0.12923 0.08771,0.22553 0.06365,0.0963 0.301028,0.50345 0.442561,0.59987 0.141532,0.0964 0.185782,0.0596 0.272521,0.0727 0.08674,0.0132 0.864887,0.081 1.003297,0.084 0.138413,0.003 1.034821,-0.0296 1.184084,-0.0406 0.149263,-0.011 0.393419,-0.0182 0.525364,-0.097 0.131944,-0.0788 0.178844,-0.19871 0.24293,-0.30222 0.06408,-0.10352 0.203376,-0.33046 0.217998,-0.42481 0.03419,-0.13573 0.0037,-0.2566 -0.05462,-0.30082 -0.05829,-0.0442 -0.270331,-0.0285 -0.412351,-0.053 -0.142017,-0.0246 -0.451253,-0.0788 -0.620752,-0.19502 -0.169498,-0.11623 -0.2626,-0.21794 -0.302078,-0.31817 -0.03948,-0.10023 -0.09546,-0.11327 -0.06723,-0.29563 0.02824,-0.18236 0.05587,-0.24656 0.111827,-0.30924 0.05596,-0.0627 0.206482,-0.18068 0.366576,-0.24772 0.424559,-0.24058 0.90322,-0.49537 1.195331,-0.80891 0.158569,-0.17221 0.206608,-0.20494 0.306007,-0.52376 0.0994,-0.31882 0.06573,-0.69653 0.03538,-1.02148 -0.02301,-0.24931 0.04149,-0.66199 0.236225,-0.9101 0.248448,-0.28544 0.637374,-0.44316 0.976,-0.45578 0.253526,-0.007 0.545679,0.0671 0.756078,0.1907 0.210396,0.12356 0.538457,0.49187 0.598356,0.74581 0.0599,0.25393 0.09424,0.70578 -0.06108,1.04609 -0.155313,0.34031 -0.284199,0.39142 -0.284199,0.39142 0,0 -0.0056,0.0256 0.0045,0.039 0.01005,0.0134 0.02422,0.0244 0.04456,0.0196 0.02035,-0.005 0.04298,-0.0205 0.04298,-0.0205 0,0 0.20909,-0.11559 0.428086,-0.36446 0.218996,-0.24887 0.495919,-0.61288 0.645975,-0.97794 0.150055,-0.36506 0.188547,-0.4449 0.224163,-0.74428 0.03562,-0.29938 0.06217,-0.52087 0.01104,-0.83505 -0.05112,-0.31417 -0.107756,-0.51761 -0.190259,-0.72252 -0.08251,-0.20492 -0.184515,-0.43984 -0.332177,-0.62707 -0.147659,-0.18722 -0.31548,-0.40585 -0.532141,-0.56644 -0.216661,-0.16058 -0.45835,-0.30045 -0.737665,-0.41496 -0.279312,-0.11451 -0.653816,-0.18293 -0.91985,-0.17965 -0.266033,0.003 -0.658416,0.0463 -0.868748,0.12119 -0.21033,0.0749 -0.489865,0.19763 -0.694483,0.36646 -0.204618,0.16881 -0.365009,0.27836 -0.543039,0.52813 -0.17803,0.24977 -0.259081,0.42151 -0.340928,0.61451 -0.08185,0.19301 -0.13792,0.4156 -0.15632,0.63678 -0.0184,0.22119 -0.01731,0.41061 0.01108,0.60314 0.02838,0.19254 0.05636,0.33776 0.104644,0.51324 0.04829,0.17547 0.144859,0.40571 0.144859,0.40571 l -0.171838,0.0545 c 0,0 -0.212342,0.0726 -0.284599,0.0848 -0.07226,0.0121 -0.161394,0.0185 -0.298498,0.007 -0.137104,-0.0115 -0.368694,-0.0539 -0.500466,-0.15774 -0.131771,-0.10381 -0.249503,-0.17837 -0.30961,-0.32889 -0.06011,-0.15051 -0.09896,-0.22255 -0.113299,-0.48951 -0.01434,-0.26695 0.02662,-0.59754 0.06293,-0.79988 0.03631,-0.20234 0.288395,-1.68295 0.288395,-1.68295 0,0 0.05429,-0.28161 0.05827,-0.50471 0.0039,-0.22311 -0.0019,-0.44299 -0.06981,-0.59255 -0.06789,-0.14955 -0.142866,-0.24477 -0.142866,-0.24477 -0.0024,-0.2942 0.04517,-0.65428 0.249345,-0.84328 0.650307,-0.46329 1.311894,-0.0647 1.450775,0.52268 0.0149,0.1808 0.03711,0.23124 0.0211,0.37379 -0.016,0.14256 -0.0687,0.34229 -0.0687,0.34229 l 0.163368,-0.19424 c 0,0 0.170338,-0.27407 0.204668,-0.38086 0.03433,-0.10679 0.106455,-0.37534 0.116538,-0.53126 0.01007,-0.15593 -0.0063,-0.52516 -0.07241,-0.7373 -0.06607,-0.21214 -0.261527,-0.60322 -0.386626,-0.75282 -0.125099,-0.14959 -0.346848,-0.37056 -0.528466,-0.47259 -0.18162,-0.10203 -0.450612,-0.21743 -0.623526,-0.24466 -0.172912,-0.0273 -0.530027,-0.0679 -0.698923,-0.0444 -0.168897,0.0235 -0.42013,0.0545 -0.605312,0.1304 -0.185183,0.0759 -0.498937,0.22043 -0.61984,0.33362 -0.120902,0.1132 -0.282116,0.24473 -0.41156,0.43847 -0.129448,0.19373 -0.168778,0.26038 -0.230376,0.44892 -0.0616,0.18852 -0.102854,0.49911 -0.09085,0.68083 0.01199,0.18172 0.105036,0.52091 0.211004,0.69245 0.105966,0.17154 0.19651,0.32647 0.293307,0.40823 0.0968,0.0818 0.176166,0.14524 0.220653,0.16624 0.04449,0.021 0.105168,0.0561 0.105168,0.0561 -0.345684,0.16716 -0.686469,0.322 -1.01444,0.51502 0,0 -0.0088,0.006 -1.01e-4,0.0285 0.0087,0.0223 0.0187,0.0494 0.03836,0.0494 0.01965,0 1.068111,-0.0271 1.068111,-0.0271 0,0 -0.05627,0.0365 -0.08103,0.0733 -0.02476,0.0368 -0.120908,0.17861 -0.173528,0.23286 -0.05262,0.0542 -0.127068,0.15618 -0.222712,0.24128 -0.09564,0.0851 -0.175717,0.14768 -0.252937,0.21591 -0.07722,0.0682 -0.133017,0.1202 -0.14772,0.19507 -0.0147,0.0749 -0.0305,0.20236 -0.01564,0.25821 0.01486,0.0559 0.05776,0.18666 0.126575,0.25001 0.06882,0.0633 0.171928,0.12216 0.276303,0.13134 0.104376,0.009 0.2323,-0.009 0.299656,-0.0379 0.06736,-0.0291 0.134628,-0.0785 0.174491,-0.12014 0.03986,-0.0416 0.131394,-0.48286 0.131394,-0.48286 z"
         id="path922"
         sodipodi:nodetypes="cssssssssssszzszsszzsczssssscczcccssscsscsssssssssssssscsccsssssscssccccccscssssssssscsssccsscsssssssssscc" />
      <path
         style="fill:#204a87;stroke:none;stroke-width:0.0503923px;stroke-linecap:butt;stroke-linejoin:miter;stroke-opacity:1"
         d="m 67.385767,111.93434 c 0.191309,-0.19657 0.534303,-0.39566 0.981002,-0.47373 0.4467,-0.0781 1.096102,-0.0781 1.096102,-0.0781 l -0.06693,0.50993 c 0,0 -0.494281,0.008 -0.877611,0.10376 -0.38333,0.0961 -0.582798,0.20433 -0.857109,0.35249 z"
         id="path928"
         sodipodi:nodetypes="czcczcc" />
      <path
         style="fill:none;stroke:#204a87;stroke-width:0.164;stroke-linecap:butt;stroke-linejoin:miter;stroke-miterlimit:4;stroke-dasharray:none;stroke-opacity:1"
         d="m 68.266638,112.58464 0.198337,-0.0559 0.198339,-0.0559 0.19834,-0.0558 0.198337,-0.18481"
         id="path924"
         sodipodi:nodetypes="ccccc" />
    </g>
  </g>
</svg>
